<?xml version="1.0" standalone="no"?><!DOCTYPE svg PUBLIC "-//W3C//DTD SVG 1.1//EN" "http://www.w3.org/Graphics/SVG/1.1/DTD/svg11.dtd"><svg t="1610962264196" class="icon" viewBox="0 0 1024 1024" version="1.1" xmlns="http://www.w3.org/2000/svg" p-id="3743" width="16" height="16" xmlns:xlink="http://www.w3.org/1999/xlink"><defs><style type="text/css"></style></defs><path d="M525.949384 0a248.657377 248.657377 0 0 1 248.657377 248.657377v73.394238h130.727489a87.727551 87.727551 0 0 1 87.727551 87.727551v526.557271a87.727551 87.727551 0 0 1-87.727551 87.727551H144.452915a87.727551 87.727551 0 0 1-87.727551-87.727551V409.843154a87.727551 87.727551 0 0 1 87.727551-87.727551h132.583141V248.977317A248.657377 248.657377 0 0 1 525.949384 0z m51.190402 555.799788H489.412235v234.004124h87.727551z m-51.190402-468.008249a160.865838 160.865838 0 0 0-160.865837 160.865838v73.394238h321.795663V248.913329a160.865838 160.865838 0 0 0-160.929826-161.185778z" fill="#A0A1A6" p-id="3744"></path></svg>