<svg xmlns="http://www.w3.org/2000/svg" width="72" height="22" viewBox="0 0 72 22">
  <g id="logo" transform="translate(-24 -21)">
    <rect id="矩形_125" data-name="矩形 125" width="72" height="22" transform="translate(24 21)" fill="none"/>
    <path id="路径_5" data-name="路径 5" d="M189.616,364.561v7.867H185.4V358.511c1.8,0,3.557-.011,5.325.023.176,0,.417.332.516.56.736,1.887,1.438,3.785,2.163,5.672.066.172.154.343.3.64.582-1.5,1.109-2.87,1.636-4.242.285-.755.56-1.509.878-2.241.066-.171.264-.4.406-.4,1.757-.023,3.524-.023,5.314-.023v13.928h-4.15v-7.65l-.165-.034-1.186,3.568c-.406,1.224-.834,2.447-1.219,3.682a.58.58,0,0,1-.648.492c-2.2.057-2.185.057-2.877-2.093-.626-1.944-1.263-3.9-1.9-5.843a.964.964,0,0,1-.176.011Zm67.776-3.408a2.324,2.324,0,0,0-2.58-2.653h-8.838c-1.746,0-2.624.858-2.635,2.687-.022,2.916-.022,5.843,0,8.759a2.246,2.246,0,0,0,2.361,2.516c3.162.034,6.313.034,9.475,0a2.139,2.139,0,0,0,2.218-2.39Q257.408,365.613,257.392,361.153Zm-4.875,8.4c-1.438-.023-2.866-.023-4.3,0-.516.011-.714-.206-.7-.732.022-1.1.011-2.207.011-3.3,0-1.075.011-2.15,0-3.236-.011-.606.22-.88.845-.858,1.361.034,2.723.034,4.1.011.582-.011.8.229.8.812,0,2.184.011,4.357.033,6.541C253.3,369.352,253.055,369.569,252.517,369.558Zm-38.131-5.626v3.087h-6.555V369.5h6.423v2.927H203.593V358.569h10.65v3H207.82v2.367Zm13.164-5.363V361.4h-3.8v10.978H219.4v-.8c0-3.11-.011-6.221.011-9.342,0-.595-.132-.823-.736-.8-1,.046-2.009.011-3.063.011v-2.893C219.557,358.569,223.52,358.569,227.55,358.569Zm11.441,8.359c.274-.069.45-.114.637-.16a2.562,2.562,0,0,0,2.207-2.836v-2.5a2.625,2.625,0,0,0-2.789-2.927c-3.228,0-6.445.034-9.673.011-.56,0-.648.217-.648.732.022,4.162.011,8.336.011,12.5,0,.206.033.423.044.629h4.205v-5.5c1.372-.24,1.416-.206,1.943.9.67,1.406,1.329,2.813,2.009,4.208.1.206.34.48.516.48,1.515.034,3.03.023,4.677.023-1.076-1.921-2.086-3.716-3.14-5.557Zm-2.525-3.076c-1.087-.011-2.163,0-3.25-.011-.044,0-.088-.034-.2-.08v-2.333h1.548c.889,0,1.79.023,2.679-.011.527-.011.78.172.769.755C238,364.046,238.2,363.863,236.465,363.852Z" transform="translate(-161.4 -333.5)" fill="#fee800"/>
  </g>
</svg>
